<svg height="512" width="512" xmlns="http://www.w3.org/2000/svg"><path d="M256 0C147.19 0 58.67 88.52 58.67 197.33c0 61.2 31.66 132.28 94.11 211.26 45.7 57.79 90.74 97.74 92.63 99.41 6.011 5.297 15.086 5.37 21.18 0 1.89-1.67 46.93-41.62 92.63-99.41 62.45-78.98 94.11-150.06 94.11-211.26C453.33 88.52 364.81 0 256 0zm-88 280v-68.628c0-4.272-5.011-6.576-8.254-3.796l-5.336 4.574c-6.71 5.75-16.81 4.97-22.56-1.74s-4.97-16.81 1.74-22.56l112-96a16.007 16.007 0 0120.82 0l112 96c6.71 5.75 7.49 15.85 1.74 22.56-5.786 6.735-15.878 7.467-22.56 1.74l-5.336-4.574c-3.243-2.78-8.254-.476-8.254 3.796V280c0 8.837-7.163 16-16 16H184c-8.837 0-16-7.163-16-16z"/><path d="M200 175.37V259a5 5 0 005 5h102a5 5 0 005-5v-83.63a5 5 0 00-1.746-3.796l-51-43.714a5 5 0 00-6.508 0l-51 43.714A4.998 4.998 0 00200 175.37z"/></svg>