<svg xmlns="http://www.w3.org/2000/svg" width="512" height="512"><path d="M352 312h48a72.083 72.083 0 0072-72v-88a72.083 72.083 0 00-72-72H290.54V68.05L256 88l34.54 19.95V96H400a56.062 56.062 0 0156 56v88a56.062 56.062 0 01-56 56h-48v-96a24.032 24.032 0 00-24-24H120a24.032 24.032 0 00-24 24v208a23.841 23.841 0 001.38 8H16a8 8 0 000 16h448a8 8 0 000-16H350.62a23.841 23.841 0 001.38-8zM192 192h64v103.35l-27-21.6a8.018 8.018 0 00-10 0l-27 21.6zm144 104h-32a8 8 0 000 16h32v96a8.011 8.011 0 01-8 8H120a8.011 8.011 0 01-8-8V200a8.011 8.011 0 018-8h56v120a8 8 0 0013 6.25l35-28 35 28a8 8 0 0013-6.25V192h56a8.011 8.011 0 018 8z"/><path d="M160 368h-32a8 8 0 00-8 8v24a8 8 0 008 8h32a8 8 0 008-8v-24a8 8 0 00-8-8zm-8 24h-16v-8h16zM216 368h-32a8 8 0 000 16h32a8 8 0 000-16zM192 392h-8a8 8 0 000 16h8a8 8 0 000-16zM496 416h-8a8 8 0 000 16h8a8 8 0 000-16z"/></svg>